<?xml version="1.0" encoding="UTF-8"?>
<svg width="2119px" height="1192px" viewBox="0 0 2119 1192" version="1.1" xmlns="http://www.w3.org/2000/svg" xmlns:xlink="http://www.w3.org/1999/xlink">
    <!-- Generator: Sketch 41 (35326) - http://www.bohemiancoding.com/sketch -->
    <title>Group</title>
    <desc>Created with Sketch.</desc>
    <defs></defs>
    <g id="Page-1" stroke="none" stroke-width="1" fill="none" fill-rule="evenodd">
        <g id="Group">
            <rect id="Rectangle-2" fill="#FFFFFF" x="0" y="0" width="2119" height="1192"></rect>
            <rect id="Rectangle" fill="#EFEFEF" x="346" y="174" width="379" height="850" rx="17"></rect>
            <rect id="Rectangle-Copy" fill="#EFEFEF" x="1085.08925" y="169" width="687.910751" height="850" rx="17"></rect>
            <text id="$apply(fn)" font-family="OpenSans-Semibold, Open Sans" font-size="48" font-weight="500" fill="#333333">
                <tspan x="820.725445" y="302.056313">$apply(fn)</tspan>
            </text>
            <polyline id="Shape" fill="#424B55" points="784.936717 287.37071 745.703412 316.056313 745.703412 297.162455 687.36292 297.162455 687.156503 277.637315 745.703116 277.637315 745.703116 258.685401"></polyline>
            <polygon id="Shape-Copy-2" fill="#424B55" points="690.427239 928.43489 729.660544 957.120492 729.660544 938.226634 1183.50021 938.226634 1181.91915 918.543534 729.66084 918.701494 729.66084 899.74958"></polygon>
            <polyline id="Shape-Copy-3" fill="#424B55" points="1293.12694 422.222181 1264.44134 461.455487 1283.3352 461.455487 1282.32817 757.140397 1302.20811 757.140397 1302.86034 461.455783 1321.81225 461.455783"></polyline>
            <polyline id="Shape-Copy-5" fill="#424B55" points="522.868705 448.388066 494.183102 487.621372 513.076961 487.621372 513.076961 732.942064 532.6021 732.942064 532.6021 487.621668 551.554014 487.621668"></polyline>
            <polyline id="Shape-Copy-4" fill="#424B55" points="1435.40394 766.952604 1406.71834 727.719299 1425.6122 727.719299 1424.60517 432.034388 1444.48511 432.034388 1445.13733 727.719003 1464.08925 727.719003"></polyline>
            <polyline id="Shape-Copy" fill="#424B55" points="1223.21529 284.099975 1183.98198 312.785577 1183.98198 293.891719 1125.64149 293.891719 1125.43507 274.36658 1183.98169 274.36658 1183.98169 255.414665"></polyline>
            <path d="M1381.05831,208.303246 L1382.89593,205.18847 L1395.97018,192.114551 C1364.17245,185.469045 1329.74881,194.486922 1305.06756,219.177295 C1270.54432,253.700528 1266.66013,307.255137 1293.42376,346.060942 L1279.4626,360.022426 L1324.28022,366.423501 L1317.87914,321.605887 L1306.49801,332.986697 C1286.65132,301.505658 1290.44504,259.40444 1317.87003,231.979445 C1335.19951,214.650292 1358.38685,206.754971 1381.05831,208.303246 Z" id="Shape" fill="#424B55"></path>
            <path d="M1465.11624,212.77622 L1420.29862,206.375145 L1426.70002,251.192759 L1439.14936,238.743422 C1464.77254,270.74066 1462.75298,317.568396 1433.1011,347.229064 C1413.2095,367.12099 1385.58564,374.581479 1359.90811,369.601744 L1345.05027,384.459255 C1379.43778,395.459913 1418.62341,387.320487 1445.91269,360.031214 C1482.64491,323.298996 1484.69148,264.99997 1452.0332,225.868366 L1465.11624,212.77622 Z" id="Shape" fill="#424B55"></path>
            <g id="Group-3" transform="translate(1256.000000, 802.000000)" fill="#424B55">
                <path d="M105.425122,18.3477977 L107.26721,15.2254486 L120.373246,2.11973899 C88.4982055,-4.54192496 53.9908646,4.49787928 29.2495922,29.2482871 C-5.35758564,63.8554649 -9.25122349,117.540294 17.5774878,156.440457 L3.58238173,170.435889 L48.5089723,176.852529 L42.0923328,131.925938 L30.6835237,143.334421 C10.7885808,111.776835 14.5915171,69.5732463 42.0831974,42.0815661 C59.4548124,24.7102773 82.6985318,16.7957586 105.425122,18.3477977 Z" id="Shape"></path>
                <path d="M189.687439,22.8316476 L144.760848,16.4150082 L151.177814,61.3415987 L163.657423,48.8619902 C189.342904,80.937031 187.318434,127.87863 157.594454,157.611419 C137.654486,177.551713 109.963458,185.030343 84.223491,180.038499 L69.3295269,194.932137 C103.800653,205.959543 143.081566,197.800326 170.437194,170.444698 C207.258728,133.623165 209.310277,75.1823817 176.572594,35.9556281 L189.687439,22.8316476 Z" id="Shape"></path>
            </g>
            <text id="$eval-queue" font-family="OpenSans-Semibold, Open Sans" font-size="48" font-weight="500" fill="#333333">
                <tspan x="1517.51562" y="272">$eval </tspan>
                <tspan x="1505.42188" y="337">queue</tspan>
            </text>
            <text id="event-queue" font-family="OpenSans-Semibold, Open Sans" font-size="48" font-weight="500" fill="#333333">
                <tspan x="470.332031" y="272">event </tspan>
                <tspan x="462.421875" y="337">queue</tspan>
            </text>
            <text id="DOM-render" font-family="OpenSans-Semibold, Open Sans" font-size="48" font-weight="500" fill="#333333">
                <tspan x="471.347656" y="859">DOM</tspan>
                <tspan x="451.460938" y="924">render</tspan>
            </text>
            <text id="$digest-loop" font-family="OpenSans-Semibold, Open Sans" font-size="48" font-weight="500" fill="#333333">
                <tspan x="1505.36328" y="580">$digest</tspan>
                <tspan x="1538.03516" y="645">loop</tspan>
            </text>
            <text id="$watch-list" font-family="OpenSans-Semibold, Open Sans" font-size="48" font-weight="500" fill="#333333">
                <tspan x="1505.22266" y="878">$watch</tspan>
                <tspan x="1554.5" y="943">list</tspan>
            </text>
        </g>
    </g>
</svg>